<svg width="18" height="18" viewBox="0 0 18 18" fill="none" xmlns="http://www.w3.org/2000/svg">
<path d="M8.88229 4.76465C6.39792 4.76465 4.39401 6.76855 4.39401 9.25293C4.39401 11.7373 6.39792 13.7412 8.88229 13.7412C11.3667 13.7412 13.3706 11.7373 13.3706 9.25293C13.3706 6.76855 11.3667 4.76465 8.88229 4.76465ZM8.88229 12.1709C7.27682 12.1709 5.96432 10.8623 5.96432 9.25293C5.96432 7.64355 7.27292 6.33496 8.88229 6.33496C10.4917 6.33496 11.8003 7.64355 11.8003 9.25293C11.8003 10.8623 10.4878 12.1709 8.88229 12.1709ZM14.601 4.58105C14.601 5.16309 14.1323 5.62793 13.5542 5.62793C12.9721 5.62793 12.5073 5.15918 12.5073 4.58105C12.5073 4.00293 12.976 3.53418 13.5542 3.53418C14.1323 3.53418 14.601 4.00293 14.601 4.58105ZM17.5737 5.64355C17.5073 4.24121 17.187 2.99902 16.1596 1.97559C15.1362 0.952148 13.894 0.631836 12.4917 0.561523C11.0464 0.479492 6.71432 0.479492 5.26901 0.561523C3.87058 0.62793 2.62839 0.948242 1.60104 1.97168C0.5737 2.99512 0.257294 4.2373 0.186981 5.63965C0.10495 7.08496 0.10495 11.417 0.186981 12.8623C0.253387 14.2646 0.5737 15.5068 1.60104 16.5303C2.62839 17.5537 3.86667 17.874 5.26901 17.9443C6.71432 18.0264 11.0464 18.0264 12.4917 17.9443C13.894 17.8779 15.1362 17.5576 16.1596 16.5303C17.1831 15.5068 17.5034 14.2646 17.5737 12.8623C17.6557 11.417 17.6557 7.08887 17.5737 5.64355ZM15.7065 14.4131C15.4018 15.1787 14.812 15.7686 14.0425 16.0771C12.8901 16.5342 10.1557 16.4287 8.88229 16.4287C7.60886 16.4287 4.87057 16.5303 3.72214 16.0771C2.95651 15.7725 2.36667 15.1826 2.05808 14.4131C1.60104 13.2607 1.70651 10.5264 1.70651 9.25293C1.70651 7.97949 1.60495 5.24121 2.05808 4.09277C2.36276 3.32715 2.95261 2.7373 3.72214 2.42871C4.87448 1.97168 7.60886 2.07715 8.88229 2.07715C10.1557 2.07715 12.894 1.97559 14.0425 2.42871C14.8081 2.7334 15.3979 3.32324 15.7065 4.09277C16.1635 5.24512 16.0581 7.97949 16.0581 9.25293C16.0581 10.5264 16.1635 13.2646 15.7065 14.4131Z" fill="#D87023"/>
</svg>
