<svg width="21" height="17" viewBox="0 0 21 17" fill="none" xmlns="http://www.w3.org/2000/svg">
<path d="M18.0697 4.5482C18.0824 4.72586 18.0824 4.90355 18.0824 5.08121C18.0824 10.5 13.958 16.7436 6.41995 16.7436C4.0976 16.7436 1.94026 16.071 0.125534 14.9036C0.455495 14.9416 0.772722 14.9543 1.11538 14.9543C3.03159 14.9543 4.79557 14.3071 6.20421 13.203C4.40217 13.165 2.89202 11.9848 2.37171 10.3604C2.62553 10.3984 2.87932 10.4238 3.14585 10.4238C3.51385 10.4238 3.8819 10.373 4.22452 10.2843C2.34635 9.90351 0.937683 8.25379 0.937683 6.26141V6.21066C1.48335 6.51523 2.11792 6.70559 2.79046 6.73094C1.68639 5.99488 0.963073 4.73855 0.963073 3.31723C0.963073 2.55582 1.16608 1.85785 1.52143 1.24871C3.53921 3.73602 6.57221 5.36035 9.97319 5.53805C9.90975 5.23348 9.87167 4.91625 9.87167 4.59898C9.87167 2.34008 11.6991 0.5 13.9707 0.5C15.1508 0.5 16.2168 0.994922 16.9656 1.79441C17.8919 1.61676 18.7803 1.2741 19.5671 0.80457C19.2625 1.75637 18.6153 2.55586 17.7651 3.06344C18.5899 2.97465 19.3894 2.74617 20.1255 2.42895C19.5672 3.24109 18.8692 3.96441 18.0697 4.5482Z" fill="#D87023"/>
</svg>
